<?xml version="1.0" encoding="utf-8"?>
<!-- Generator: Adobe Illustrator 27.5.0, SVG Export Plug-In . SVG Version: 6.00 Build 0)  -->
<svg version="1.1" xmlns="http://www.w3.org/2000/svg" xmlns:xlink="http://www.w3.org/1999/xlink" x="0px" y="0px"
	 viewBox="0 0 1122 1122" style="enable-background:new 0 0 1122 1122;" xml:space="preserve">
<g id="Bg">
	<g>
		<g>
			<rect style="fill:#FFFFFF;" width="1122" height="1122"/>
		</g>
	</g>
</g>
<g id="Object">
	<g>
		
			<rect x="482.94" y="268.849" transform="matrix(1 -0.0078 0.0078 1 -2.1442 4.3885)" style="fill:none;" width="151.288" height="13.579"/>
		<path style="fill:#616E7D;" d="M634.281,281.835l38.491-0.299l-0.255-32.823c-0.046-5.07-2.135-10.007-5.749-13.557
			c-3.62-3.562-8.58-5.575-13.65-5.537l-189.774,1.482c-5.047,0.046-9.995,2.135-13.557,5.74c-3.562,3.611-5.558,8.58-5.523,13.653
			l0.267,32.823l38.468-0.296l-0.111-13.58l151.283-1.183L634.281,281.835z"/>
		<path style="fill:#616E7D;" d="M305.987,406.784c-6.063,0.052-11.8,2.788-15.647,7.478c-3.846,4.688-5.406,10.851-4.275,16.8
			l85.213,444.721c1.862,9.691,10.367,16.672,20.229,16.597l344.335-2.695c9.809-0.075,18.204-7.124,19.956-16.771l81.257-446.018
			c1.097-5.961-0.563-12.168-4.461-16.812c-3.899-4.647-9.734-7.333-15.797-7.281L305.987,406.784z M452.808,862.191
			c-11.063,1.761-21.47-5.775-23.216-16.823l-58.504-366.562c-1.77-11.08,5.76-21.464,16.846-23.225
			c11.057-1.767,21.459,5.757,23.216,16.826l58.499,366.556C471.418,850.017,463.871,860.425,452.808,862.191z M564.968,863.644
			c-11.213,0.093-20.373-8.922-20.443-20.13l-2.912-371.18c-0.07-11.211,8.939-20.357,20.124-20.44
			c11.225-0.093,20.385,8.916,20.461,20.121l2.912,371.183C585.18,854.403,576.17,863.56,564.968,863.644z M752.81,475.821
			l-52.756,367.432c-1.607,11.078-11.875,18.779-22.972,17.183c-11.098-1.584-18.802-11.869-17.195-22.955l52.756-367.435
			c1.601-11.083,11.881-18.778,22.978-17.18C746.713,454.461,754.417,464.726,752.81,475.821z"/>
		<path style="fill:#AAD4C8;" d="M260.482,387.797L862,383.101l-0.482-61.263l-55.795,0.432l-0.244-32.22
			c-0.041-2.518-1.062-4.971-2.855-6.72c-1.792-1.772-4.275-2.77-6.77-2.756l-123.083,0.963l-38.491,0.299l-151.283,1.186
			l-38.468,0.296l-114.747,0.893c-2.506,0.021-4.966,1.056-6.711,2.854c-1.776,1.781-2.78,4.252-2.762,6.77l0.243,32.231
			L260,326.536L260.482,387.797z"/>
		<path style="fill:#AAD4C8;" d="M561.737,451.894c-11.185,0.084-20.194,9.23-20.124,20.44l2.912,371.18
			c0.07,11.208,9.23,20.223,20.443,20.13c11.202-0.084,20.212-9.241,20.141-20.446l-2.912-371.183
			C582.122,460.81,572.962,451.801,561.737,451.894z"/>
		<path style="fill:#AAD4C8;" d="M712.643,470.046l-52.756,367.435c-1.607,11.086,6.097,21.371,17.195,22.955
			c11.097,1.595,21.365-6.106,22.972-17.183l52.756-367.432c1.607-11.095-6.097-21.36-17.189-22.956
			C724.524,451.268,714.244,458.963,712.643,470.046z"/>
		<path style="fill:#AAD4C8;" d="M387.933,455.581c-11.086,1.761-18.615,12.145-16.846,23.225l58.504,366.562
			c1.746,11.049,12.154,18.584,23.216,16.823c11.063-1.766,18.611-12.174,16.841-23.228l-58.499-366.556
			C409.392,461.338,398.991,453.814,387.933,455.581z"/>
	</g>
</g>
</svg>
